<svg width="15" height="17" viewBox="0 0 15 17" fill="none" xmlns="http://www.w3.org/2000/svg">
<path d="M9.63204 6.76337C9.72801 6.83499 9.81724 6.91837 9.92107 6.97657C10.9111 7.53503 11.9118 8.07558 12.894 8.64803C14.3571 9.50083 15.1328 11.3206 14.9644 12.6904C14.7169 14.7083 13.6129 16.0183 11.845 16.4732C11.5049 16.5605 11.1468 16.617 10.7966 16.6187C8.3148 16.6304 5.83243 16.6366 3.35006 16.6198C1.4845 16.6069 0.0370551 15.1565 0.000574446 13.306C-0.0331 11.5724 1.41827 10.047 3.16148 9.99774C3.78615 9.97983 4.41193 9.99046 5.03715 9.98487C5.14323 9.98375 5.2493 9.96696 5.35538 9.95745C5.36436 9.9317 5.37334 9.90652 5.38288 9.88078C5.2942 9.81307 5.21226 9.73361 5.11573 9.67933C4.08529 9.09793 3.01949 8.57081 2.02778 7.93009C0.590439 7.00119 -0.103816 5.61455 0.0185342 3.91735C0.138079 2.26603 1.01698 1.06741 2.53514 0.364577C3.09414 0.105492 3.69635 0.0126015 4.30529 0.0103632C6.722 0.00140994 9.1387 -0.00810291 11.5554 0.0114824C13.366 0.0260314 14.7079 1.18884 14.9734 2.96382C15.1457 4.11376 14.4632 5.55859 13.4692 6.12433C12.8771 6.46175 12.2553 6.68111 11.556 6.65369C11.0346 6.63354 10.5109 6.65145 9.98842 6.65705C9.8801 6.65817 9.77235 6.67831 9.66459 6.6895C9.65392 6.71356 9.64326 6.73875 9.63204 6.76337ZM6.98354 9.59092C6.99308 9.42249 7.00318 9.32288 7.00318 9.22328C7.0043 8.25576 7.00262 7.28825 7.00487 6.32074C7.00599 5.8686 7.13227 5.74102 7.58856 5.73654C8.12959 5.73094 8.67119 5.73878 9.21223 5.73318C10.1074 5.72423 11.006 5.75053 11.8972 5.68618C13.1235 5.59776 14.0793 4.48532 14.044 3.27271C14.0092 2.07689 12.954 0.9997 11.7518 0.992425C9.19539 0.976197 6.63781 0.963327 4.08192 0.998021C2.11758 1.02432 0.617378 2.97837 1.03382 4.88374C1.29704 6.08907 2.04069 6.90494 3.10255 7.47963C4.2907 8.12314 5.47099 8.78177 6.65465 9.43256C6.74164 9.48068 6.83313 9.51929 6.98354 9.59092ZM8.01791 7.05994C8.00612 7.21495 7.99097 7.32183 7.99097 7.42815C7.98872 8.40461 7.99265 9.38108 7.9876 10.3581C7.98535 10.7627 7.85683 10.8936 7.45386 10.9121C7.21196 10.9233 6.96895 10.9126 6.72649 10.9166C5.47773 10.9367 4.2256 10.9099 2.98133 10.9932C1.64501 11.0828 0.691462 12.5158 1.02821 13.8118C1.32398 14.95 2.24273 15.6439 3.48644 15.6484C5.42665 15.6545 7.36687 15.6512 9.30764 15.6495C9.88572 15.6489 10.4655 15.6685 11.0413 15.6305C12.7851 15.5146 14.1708 13.9114 14.0136 12.1767C13.8992 10.9166 13.2812 9.94513 12.1717 9.31897C10.8819 8.59151 9.57759 7.88812 8.27944 7.17522C8.2149 7.14052 8.14475 7.1159 8.01791 7.05994Z" fill="white"/>
</svg>
