<svg width="21" height="12" viewBox="0 0 21 12" fill="none" xmlns="http://www.w3.org/2000/svg">
<path d="M4.62699 0.0242505L3.65678 1.70777L3.65226 1.70778L3.65355 2.56856L2.96391 2.5696L0.00601632 4.08839L0.00736738 4.98627L0.00914554 6.16799L0.00932936 6.29015L0.0104966 7.06586L2.97295 8.57575L3.66259 8.57471L3.66387 9.42784L4.64368 11.1161L6.22458 11.1137L7.4289 9.42257L7.42891 9.42983L9.13861 9.42726L9.85905 8.56539L10.0718 8.56507L12.5147 8.56139L13.9501 7.29204L15.3025 8.5572L16.7375 7.28784L18.0907 8.553L20.4862 6.01501L11.0098 6.02927L11.0084 5.09188L20.4848 5.07762L18.0816 2.54685L16.7322 3.81608L15.2935 2.55105L13.9449 3.82027L12.5057 2.55524L10.0627 2.55892L9.85001 2.55924L9.12698 1.69954L7.41729 1.70211L7.41194 1.70212L6.20789 0.0218716L4.62699 0.0242505Z" fill="white"/>
<path d="M4.58922 3.83231L6.48839 5.60021L6.86554 5.21138L7.39009 5.69924L6.8371 6.26977L5.16085 4.70957L5.16085 4.70917L4.76404 4.33964L4.4214 4.69294L4.38689 4.72888L3.45428 5.69065L3.85109 6.06017L3.85437 6.05694L4.73453 6.87609L5.04841 6.55227L5.11168 6.48726L5.38405 6.74045L5.72676 6.70445L5.69144 7.02665L6.04197 6.98983L6.00584 7.31929L7.01221 7.51613L5.11304 5.74863L4.80203 6.06923L4.80203 6.06963L4.73588 6.13746L4.7363 6.13786L4.23153 5.66811L4.7837 5.0984L6.85676 7.02812L6.85799 7.02691L8.16775 5.6759L7.77094 5.30638L7.76724 5.31042L6.85495 4.46148L6.47821 4.85031L6.4778 4.85072L6.21738 4.60799L5.87467 4.64439L5.90998 4.32179L5.55987 4.35861L5.596 4.02956L4.58922 3.83231Z" fill="#020910"/>
</svg>
