<svg width="58" height="74" viewBox="0 0 58 74" fill="none" xmlns="http://www.w3.org/2000/svg">
<path d="M58 17.866L30.1467 47.6364L36.2552 53.5674V53.5636L36.2589 53.5674L28.5688 61.7888L19.6095 53.0955L44.1901 26.8125L44.1977 26.8202L50.0161 20.5937L44.4688 15.2113L43.9039 14.6627L28.7985 0L22.9763 6.22261L23.029 6.27249L10.1192 20.072L15.2071 25.0094L16.2276 26.003L12.2395 30.2729H12.2357L12.7968 35.6553L7.72781 35.0914L8.30024 40.5928L3.122 40.0173L0 55.8155L27.8495 26.0414L22.8068 21.15L21.7411 20.1103L21.7373 20.1142H21.7335L29.1375 12.1997L38.0817 20.8853L7.68262 53.3871L7.69768 53.4063L28.919 74L34.7375 67.7774L34.6772 67.7198L48.0503 53.4216L41.9418 47.4906H41.9381L45.7568 43.4087L45.7605 43.4048L45.1994 38.0224L50.2684 38.5863L49.696 33.085L54.8742 33.6604L58 17.866Z" fill="#F5F5F5"/>
</svg>
