<svg width="21" height="26" viewBox="0 0 21 26" fill="none" xmlns="http://www.w3.org/2000/svg">
<path d="M21 6.27726L10.9152 16.7371L13.1269 18.821V18.8196L13.1282 18.821L10.3439 21.7096L7.09999 18.6552L15.9999 9.4206L16.0026 9.4233L18.1093 7.23563L16.1008 5.3445L15.8962 5.15174L10.4271 0L8.31901 2.18632L8.3381 2.20385L3.66385 7.05231L5.50601 8.78708L5.87553 9.13619L4.43153 10.6364H4.43017L4.63334 12.5276L2.798 12.3294L3.00526 14.2623L1.13038 14.0601L0 19.6109L10.0834 9.14967L8.25765 7.43108L7.87176 7.06579L7.8704 7.06714H7.86903L10.5498 4.28638L13.7882 7.33807L2.78164 18.7576L2.78709 18.7644L10.4707 26L12.5774 23.8137L12.5555 23.7935L17.3975 18.7698L15.1858 16.6859H15.1845L16.5671 15.2517L16.5685 15.2503L16.3653 13.3592L18.2006 13.5574L17.9934 11.6244L19.8683 11.8266L21 6.27726Z" fill="#F5F5F5"/>
</svg>
